# xmcd
#
# Track frame offsets: 
#        150
#        13193
#        24441
#        41510
#        54966
#        70667
#        80481
#        91821
#        108471
#        124525
#
# Disc length: 1857 seconds
#
# Revision: 0
# Processed by: cddbd v1.5.2PL0 Copyright (c) Steve Scherf et al.
# Submitted via: ExactAudioCopy v0.99pb4
#
DISCID=71073f0a
DTITLE=Ray Price - Greatest Hits
DYEAR=1900
DGENRE=Classic Country
TTITLE0=City Lights
TTITLE1=Crazy Arms
TTITLE2=For the Good Times
TTITLE3=Hearaches By the Number
TTITLE4=I Won't Mention It Again
TTITLE5=Make the World Go Away
TTITLE6=My Shoes Keep Walkin' Back to You
TTITLE7=You're the Best Thing That Ever Happened to Me
TTITLE8=She's Got to Be a Saint
TTITLE9=Night Life
EXTD=
EXTT0=
EXTT1=
EXTT2=
EXTT3=
EXTT4=
EXTT5=
EXTT6=
EXTT7=
EXTT8=
EXTT9=
PLAYORDER=
